<svg width="194" height="181" viewBox="0 0 194 181" fill="none" xmlns="http://www.w3.org/2000/svg">
<g style="mix-blend-mode:darken">
<path d="M60.9353 58.39C62.624 44.6369 78.5676 37.8692 89.6338 46.2082L134.59 80.0854C145.657 88.4244 143.546 105.616 130.791 111.03L78.9741 133.025C66.2192 138.439 52.3864 128.015 54.0751 114.262L60.9353 58.39Z" fill="#1C1C1C" fill-opacity="0.34"/>
</g>
<g filter="url(#filter0_d_5_6)">
<path d="M32.0424 79.9844H26.443C26.3407 79.26 26.1319 78.6165 25.8166 78.054C25.5012 77.483 25.0964 76.9972 24.6021 76.5966C24.1078 76.1961 23.5368 75.8892 22.889 75.6762C22.2498 75.4631 21.5552 75.3566 20.8052 75.3566C19.4501 75.3566 18.2697 75.6932 17.264 76.3665C16.2583 77.0313 15.4785 78.0029 14.9245 79.2813C14.3706 80.5512 14.0936 82.0938 14.0936 83.9091C14.0936 85.7756 14.3706 87.3438 14.9245 88.6137C15.487 89.8836 16.2711 90.8424 17.2768 91.4901C18.2825 92.1378 19.4458 92.4617 20.7669 92.4617C21.5083 92.4617 22.1944 92.3637 22.8251 92.1676C23.4643 91.9716 24.0311 91.6861 24.5254 91.3111C25.0197 90.9276 25.4288 90.4631 25.7527 89.9176C26.0851 89.3722 26.3152 88.75 26.443 88.0512L32.0424 88.0767C31.8976 89.2784 31.5353 90.4375 30.9558 91.554C30.3848 92.662 29.6135 93.6549 28.6419 94.5327C27.6788 95.402 26.5282 96.0924 25.1902 96.6037C23.8606 97.1066 22.3564 97.358 20.6774 97.358C18.3422 97.358 16.2541 96.8296 14.4132 95.7728C12.5808 94.7159 11.1319 93.1861 10.0666 91.1833C9.00977 89.1804 8.48136 86.7557 8.48136 83.9091C8.48136 81.054 9.01829 78.625 10.0922 76.6222C11.166 74.6193 12.6234 73.0938 14.4643 72.0455C16.3052 70.9887 18.3762 70.4603 20.6774 70.4603C22.1944 70.4603 23.6007 70.6733 24.8961 71.0995C26.2001 71.5256 27.3549 72.1478 28.3606 72.9659C29.3663 73.7756 30.1845 74.7685 30.8152 75.9446C31.4544 77.1208 31.8635 78.4674 32.0424 79.9844ZM44.7818 97.3836C42.796 97.3836 41.0787 96.9617 39.6298 96.1179C38.1895 95.2657 37.0772 94.081 36.2931 92.564C35.5091 91.0384 35.117 89.2699 35.117 87.2586C35.117 85.2301 35.5091 83.4574 36.2931 81.9404C37.0772 80.4148 38.1895 79.2301 39.6298 78.3864C41.0787 77.5341 42.796 77.108 44.7818 77.108C46.7676 77.108 48.4806 77.5341 49.921 78.3864C51.3699 79.2301 52.4863 80.4148 53.2704 81.9404C54.0545 83.4574 54.4466 85.2301 54.4466 87.2586C54.4466 89.2699 54.0545 91.0384 53.2704 92.564C52.4863 94.081 51.3699 95.2657 49.921 96.1179C48.4806 96.9617 46.7676 97.3836 44.7818 97.3836ZM44.8074 93.1648C45.7108 93.1648 46.465 92.9091 47.0701 92.3978C47.6752 91.8779 48.1312 91.1705 48.438 90.2756C48.7534 89.3807 48.911 88.3622 48.911 87.2202C48.911 86.0782 48.7534 85.0597 48.438 84.1648C48.1312 83.2699 47.6752 82.5625 47.0701 82.0426C46.465 81.5228 45.7108 81.2628 44.8074 81.2628C43.8954 81.2628 43.1284 81.5228 42.5062 82.0426C41.8926 82.5625 41.4281 83.2699 41.1127 84.1648C40.8059 85.0597 40.6525 86.0782 40.6525 87.2202C40.6525 88.3622 40.8059 89.3807 41.1127 90.2756C41.4281 91.1705 41.8926 91.8779 42.5062 92.3978C43.1284 92.9091 43.8954 93.1648 44.8074 93.1648ZM65.2235 97.3196C63.7321 97.3196 62.3812 96.9361 61.171 96.1691C59.9693 95.3935 59.0147 94.2557 58.3074 92.7557C57.6085 91.2472 57.2591 89.3978 57.2591 87.2074C57.2591 84.9574 57.6213 83.0867 58.3457 81.5952C59.0701 80.0952 60.0332 78.9745 61.2349 78.233C62.4451 77.483 63.7704 77.108 65.2108 77.108C66.3102 77.108 67.2264 77.2955 67.9593 77.6705C68.7008 78.037 69.2974 78.4972 69.7491 79.0512C70.2093 79.5966 70.5588 80.1336 70.7974 80.662H70.9636V70.8182H76.3968V97H71.0275V93.8551H70.7974C70.5417 94.4006 70.1795 94.9418 69.7108 95.4787C69.2505 96.0071 68.6497 96.4461 67.9082 96.7955C67.1752 97.1449 66.2804 97.3196 65.2235 97.3196ZM66.9494 92.9858C67.8272 92.9858 68.5687 92.7472 69.1738 92.2699C69.7875 91.7841 70.2562 91.1066 70.5801 90.2372C70.9125 89.3679 71.0787 88.3495 71.0787 87.1818C71.0787 86.0142 70.9167 85 70.5929 84.1392C70.269 83.2784 69.8002 82.6137 69.1866 82.1449C68.573 81.6762 67.8272 81.4418 66.9494 81.4418C66.0545 81.4418 65.3002 81.6847 64.6866 82.1705C64.073 82.6563 63.6085 83.3296 63.2931 84.1904C62.9778 85.0512 62.8201 86.0483 62.8201 87.1818C62.8201 88.3239 62.9778 89.3338 63.2931 90.2117C63.617 91.081 64.0815 91.7628 64.6866 92.2571C65.3002 92.7429 66.0545 92.9858 66.9494 92.9858ZM89.8233 97.3836C87.8034 97.3836 86.0648 96.9745 84.6074 96.1563C83.1586 95.3296 82.0421 94.162 81.258 92.6534C80.4739 91.1364 80.0819 89.3424 80.0819 87.2713C80.0819 85.2515 80.4739 83.4787 81.258 81.9532C82.0421 80.4276 83.1458 79.2387 84.5691 78.3864C86.0009 77.5341 87.6799 77.108 89.606 77.108C90.9015 77.108 92.1074 77.3168 93.2239 77.7344C94.3489 78.1435 95.329 78.7614 96.1642 79.5881C97.008 80.4148 97.6642 81.4546 98.133 82.7074C98.6017 83.9517 98.8361 85.4091 98.8361 87.0796V88.5753H82.2551V85.2003H93.7097C93.7097 84.4162 93.5392 83.7216 93.1983 83.1165C92.8574 82.5114 92.3844 82.0384 91.7793 81.6975C91.1827 81.348 90.4881 81.1733 89.6955 81.1733C88.8688 81.1733 88.1358 81.3651 87.4966 81.7486C86.8659 82.1236 86.3716 82.6307 86.0137 83.2699C85.6557 83.9006 85.4725 84.6037 85.464 85.3793V88.5881C85.464 89.5597 85.6429 90.3992 86.0009 91.1066C86.3674 91.814 86.883 92.3594 87.5478 92.7429C88.2125 93.1265 89.0009 93.3182 89.9128 93.3182C90.5179 93.3182 91.0719 93.233 91.5748 93.0625C92.0776 92.8921 92.508 92.6364 92.8659 92.2955C93.2239 91.9546 93.4966 91.537 93.6841 91.0426L98.7211 91.375C98.4654 92.5853 97.9412 93.6421 97.1486 94.5455C96.3645 95.4404 95.3503 96.1392 94.106 96.6421C92.8702 97.1364 91.4426 97.3836 89.8233 97.3836ZM106.123 97L100.779 77.3637H106.289L109.332 90.5568H109.511L112.681 77.3637H118.089L121.311 90.4801H121.477L124.468 77.3637H129.965L124.634 97H118.869L115.494 84.6506H115.251L111.876 97H106.123ZM141.251 97.3836C139.265 97.3836 137.547 96.9617 136.099 96.1179C134.658 95.2657 133.546 94.081 132.762 92.564C131.978 91.0384 131.586 89.2699 131.586 87.2586C131.586 85.2301 131.978 83.4574 132.762 81.9404C133.546 80.4148 134.658 79.2301 136.099 78.3864C137.547 77.5341 139.265 77.108 141.251 77.108C143.236 77.108 144.949 77.5341 146.39 78.3864C147.839 79.2301 148.955 80.4148 149.739 81.9404C150.523 83.4574 150.915 85.2301 150.915 87.2586C150.915 89.2699 150.523 91.0384 149.739 92.564C148.955 94.081 147.839 95.2657 146.39 96.1179C144.949 96.9617 143.236 97.3836 141.251 97.3836ZM141.276 93.1648C142.18 93.1648 142.934 92.9091 143.539 92.3978C144.144 91.8779 144.6 91.1705 144.907 90.2756C145.222 89.3807 145.38 88.3622 145.38 87.2202C145.38 86.0782 145.222 85.0597 144.907 84.1648C144.6 83.2699 144.144 82.5625 143.539 82.0426C142.934 81.5228 142.18 81.2628 141.276 81.2628C140.364 81.2628 139.597 81.5228 138.975 82.0426C138.361 82.5625 137.897 83.2699 137.581 84.1648C137.275 85.0597 137.121 86.0782 137.121 87.2202C137.121 88.3622 137.275 89.3807 137.581 90.2756C137.897 91.1705 138.361 91.8779 138.975 92.3978C139.597 92.9091 140.364 93.1648 141.276 93.1648ZM154.456 97V77.3637H159.736V80.7898H159.941C160.299 79.5711 160.9 78.6506 161.743 78.0284C162.587 77.3978 163.559 77.0824 164.658 77.0824C164.931 77.0824 165.225 77.0995 165.54 77.1336C165.856 77.1676 166.133 77.2145 166.371 77.2742V82.1066C166.116 82.0299 165.762 81.9617 165.31 81.902C164.858 81.8424 164.445 81.8125 164.07 81.8125C163.269 81.8125 162.553 81.9872 161.922 82.3367C161.3 82.6776 160.806 83.1549 160.439 83.7685C160.081 84.3821 159.903 85.0895 159.903 85.8907V97H154.456ZM174.224 97.3708C172.971 97.3708 171.855 97.1534 170.874 96.7188C169.894 96.2756 169.119 95.6236 168.548 94.7628C167.985 93.8935 167.704 92.8111 167.704 91.5157C167.704 90.4247 167.904 89.5086 168.305 88.7671C168.705 88.0256 169.251 87.429 169.941 86.9773C170.632 86.5256 171.416 86.1847 172.294 85.9546C173.18 85.7245 174.109 85.5625 175.08 85.4688C176.222 85.3495 177.143 85.2387 177.842 85.1364C178.541 85.0256 179.048 84.8637 179.363 84.6506C179.678 84.4375 179.836 84.1222 179.836 83.7046V83.6279C179.836 82.8182 179.58 82.1918 179.069 81.7486C178.566 81.3054 177.85 81.0838 176.921 81.0838C175.941 81.0838 175.161 81.3012 174.582 81.7358C174.002 82.162 173.619 82.6989 173.431 83.3466L168.394 82.9375C168.65 81.7443 169.153 80.7131 169.903 79.8438C170.653 78.9659 171.62 78.2926 172.805 77.8239C173.998 77.3466 175.379 77.108 176.947 77.108C178.038 77.108 179.082 77.2358 180.079 77.4915C181.085 77.7472 181.975 78.1435 182.751 78.6804C183.535 79.2174 184.153 79.9077 184.605 80.7515C185.056 81.5867 185.282 82.5881 185.282 83.7557V97H180.117V94.277H179.964C179.649 94.8907 179.227 95.4318 178.698 95.9006C178.17 96.3608 177.535 96.723 176.794 96.9872C176.052 97.2429 175.195 97.3708 174.224 97.3708ZM175.784 93.6122C176.585 93.6122 177.292 93.4546 177.906 93.1392C178.519 92.8154 179.001 92.3807 179.35 91.8353C179.7 91.2898 179.874 90.6719 179.874 89.9816V87.8978C179.704 88.0086 179.47 88.1108 179.171 88.2046C178.882 88.2898 178.553 88.3708 178.187 88.4475C177.82 88.5157 177.454 88.5796 177.088 88.6392C176.721 88.6904 176.389 88.7372 176.09 88.7799C175.451 88.8736 174.893 89.0228 174.416 89.2273C173.938 89.4318 173.568 89.7088 173.303 90.0583C173.039 90.3992 172.907 90.8253 172.907 91.3367C172.907 92.0782 173.176 92.6449 173.713 93.037C174.258 93.4205 174.948 93.6122 175.784 93.6122Z" fill="#1C1C1C"/>
</g>
<defs>
<filter id="filter0_d_5_6" x="4.48135" y="70.4603" width="184.801" height="34.9233" filterUnits="userSpaceOnUse" color-interpolation-filters="sRGB">
<feFlood flood-opacity="0" result="BackgroundImageFix"/>
<feColorMatrix in="SourceAlpha" type="matrix" values="0 0 0 0 0 0 0 0 0 0 0 0 0 0 0 0 0 0 127 0" result="hardAlpha"/>
<feOffset dy="4"/>
<feGaussianBlur stdDeviation="2"/>
<feComposite in2="hardAlpha" operator="out"/>
<feColorMatrix type="matrix" values="0 0 0 0 0 0 0 0 0 0 0 0 0 0 0 0 0 0 0.25 0"/>
<feBlend mode="normal" in2="BackgroundImageFix" result="effect1_dropShadow_5_6"/>
<feBlend mode="normal" in="SourceGraphic" in2="effect1_dropShadow_5_6" result="shape"/>
</filter>
</defs>
</svg>
